<svg xmlns="http://www.w3.org/2000/svg" xmlns:xlink="http://www.w3.org/1999/xlink" width="1080" zoomAndPan="magnify" viewBox="0 0 810 809.999993" height="1080" preserveAspectRatio="xMidYMid meet" version="1.0"><defs><clipPath id="5935b4602e"><path d="M 275.828125 0 L 810 0 L 810 674.492188 L 275.828125 674.492188 Z M 275.828125 0 " clip-rule="nonzero"/></clipPath><clipPath id="9d209a7652"><path d="M 0 28.421875 L 543.109375 28.421875 L 543.109375 617.171875 L 0 617.171875 Z M 0 28.421875 " clip-rule="nonzero"/></clipPath><clipPath id="a7ad8a08c6"><path d="M 204 538.746094 L 241 538.746094 L 241 631 L 204 631 Z M 204 538.746094 " clip-rule="nonzero"/></clipPath><clipPath id="611bd42197"><path d="M 9 538.746094 L 282 538.746094 L 282 810 L 9 810 Z M 9 538.746094 " clip-rule="nonzero"/></clipPath><clipPath id="bc679f0f44"><path d="M 139 577 L 316.5 577 L 316.5 744 L 139 744 Z M 139 577 " clip-rule="nonzero"/></clipPath><clipPath id="62086c6dbc"><path d="M 154 538.746094 L 297 538.746094 L 297 690 L 154 690 Z M 154 538.746094 " clip-rule="nonzero"/></clipPath></defs><rect x="-81" width="972" fill="#ffffff" y="-80.999999" height="971.999992" fill-opacity="1"/><rect x="-81" width="972" fill="#ffffff" y="-80.999999" height="971.999992" fill-opacity="1"/><rect x="-81" width="972" fill="#ffffff" y="-80.999999" height="971.999992" fill-opacity="1"/><path fill="#ffc36a" d="M 1008.839844 323.21875 C 1008.839844 328.613281 1008.707031 334.003906 1008.441406 339.394531 C 1008.175781 344.78125 1007.78125 350.164062 1007.253906 355.53125 C 1006.722656 360.902344 1006.0625 366.253906 1005.273438 371.59375 C 1004.480469 376.929688 1003.558594 382.242188 1002.507812 387.535156 C 1001.453125 392.828125 1000.273438 398.089844 998.960938 403.324219 C 997.652344 408.558594 996.214844 413.757812 994.648438 418.917969 C 993.082031 424.082031 991.390625 429.203125 989.574219 434.285156 C 987.757812 439.363281 985.816406 444.398438 983.753906 449.382812 C 981.6875 454.367188 979.503906 459.296875 977.199219 464.175781 C 974.890625 469.054688 972.46875 473.871094 969.925781 478.628906 C 967.382812 483.386719 964.726562 488.082031 961.953125 492.707031 C 959.179688 497.335938 956.292969 501.894531 953.296875 506.378906 C 950.300781 510.867188 947.195312 515.277344 943.984375 519.609375 C 940.769531 523.945312 937.453125 528.195312 934.03125 532.367188 C 930.609375 536.539062 927.089844 540.621094 923.46875 544.621094 C 919.84375 548.617188 916.125 552.523438 912.3125 556.339844 C 908.5 560.152344 904.59375 563.875 900.597656 567.496094 C 896.601562 571.121094 892.519531 574.644531 888.351562 578.066406 C 884.179688 581.488281 879.929688 584.808594 875.597656 588.023438 C 871.265625 591.234375 866.855469 594.34375 862.371094 597.339844 C 857.886719 600.335938 853.332031 603.222656 848.707031 605.996094 C 844.082031 608.769531 839.390625 611.429688 834.632812 613.972656 C 829.875 616.515625 825.058594 618.941406 820.183594 621.246094 C 815.308594 623.554688 810.378906 625.742188 805.394531 627.804688 C 800.414062 629.871094 795.382812 631.8125 790.304688 633.628906 C 785.226562 635.445312 780.105469 637.140625 774.945312 638.707031 C 769.785156 640.269531 764.585938 641.710938 759.355469 643.019531 C 754.125 644.332031 748.863281 645.515625 743.574219 646.566406 C 738.28125 647.617188 732.96875 648.542969 727.636719 649.332031 C 722.300781 650.125 716.949219 650.785156 711.582031 651.3125 C 706.214844 651.84375 700.835938 652.238281 695.449219 652.503906 C 690.0625 652.769531 684.671875 652.902344 679.277344 652.902344 C 673.886719 652.902344 668.496094 652.769531 663.109375 652.503906 C 657.71875 652.238281 652.34375 651.84375 646.976562 651.3125 C 641.609375 650.785156 636.257812 650.125 630.921875 649.332031 C 625.585938 648.542969 620.273438 647.617188 614.984375 646.566406 C 609.695312 645.515625 604.433594 644.332031 599.203125 643.019531 C 593.96875 641.710938 588.773438 640.269531 583.613281 638.707031 C 578.449219 637.140625 573.332031 635.445312 568.253906 633.628906 C 563.175781 631.8125 558.144531 629.871094 553.160156 627.804688 C 548.179688 625.742188 543.25 623.554688 538.375 621.246094 C 533.496094 618.941406 528.679688 616.515625 523.925781 613.972656 C 519.167969 611.429688 514.476562 608.769531 509.851562 605.996094 C 505.222656 603.222656 500.667969 600.335938 496.183594 597.339844 C 491.699219 594.34375 487.292969 591.234375 482.960938 588.023438 C 478.628906 584.808594 474.375 581.488281 470.207031 578.066406 C 466.039062 574.644531 461.957031 571.121094 457.960938 567.496094 C 453.960938 563.875 450.058594 560.152344 446.242188 556.339844 C 442.429688 552.523438 438.710938 548.617188 435.089844 544.621094 C 431.46875 540.621094 427.945312 536.539062 424.523438 532.367188 C 421.101562 528.195312 417.785156 523.945312 414.574219 519.609375 C 411.359375 515.277344 408.253906 510.867188 405.257812 506.378906 C 402.261719 501.894531 399.378906 497.335938 396.605469 492.707031 C 393.832031 488.082031 391.175781 483.386719 388.632812 478.628906 C 386.089844 473.871094 383.664062 469.054688 381.359375 464.175781 C 379.054688 459.296875 376.867188 454.367188 374.804688 449.382812 C 372.738281 444.398438 370.800781 439.363281 368.984375 434.285156 C 367.164062 429.203125 365.472656 424.082031 363.910156 418.917969 C 362.34375 413.757812 360.90625 408.558594 359.59375 403.324219 C 358.285156 398.089844 357.101562 392.828125 356.050781 387.535156 C 354.996094 382.242188 354.078125 376.929688 353.285156 371.59375 C 352.492188 366.253906 351.832031 360.902344 351.304688 355.53125 C 350.777344 350.164062 350.378906 344.78125 350.113281 339.394531 C 349.851562 334.003906 349.71875 328.613281 349.71875 323.21875 C 349.71875 317.820312 349.851562 312.429688 350.113281 307.039062 C 350.378906 301.652344 350.777344 296.273438 351.304688 290.902344 C 351.832031 285.53125 352.492188 280.179688 353.285156 274.84375 C 354.078125 269.503906 354.996094 264.191406 356.050781 258.898438 C 357.101562 253.605469 358.285156 248.34375 359.59375 243.109375 C 360.90625 237.875 362.34375 232.679688 363.910156 227.515625 C 365.472656 222.351562 367.164062 217.230469 368.984375 212.148438 C 370.800781 207.070312 372.738281 202.039062 374.804688 197.050781 C 376.867188 192.066406 379.054688 187.136719 381.359375 182.257812 C 383.664062 177.382812 386.089844 172.5625 388.632812 167.804688 C 391.175781 163.046875 393.832031 158.355469 396.605469 153.726562 C 399.378906 149.097656 402.261719 144.539062 405.257812 140.054688 C 408.253906 135.570312 411.359375 131.160156 414.574219 126.824219 C 417.785156 122.492188 421.101562 118.238281 424.523438 114.066406 C 427.945312 109.898438 431.46875 105.8125 435.089844 101.816406 C 438.710938 97.816406 442.429688 93.910156 446.242188 90.09375 C 450.058594 86.28125 453.960938 82.5625 457.960938 78.9375 C 461.957031 75.3125 466.039062 71.792969 470.207031 68.367188 C 474.375 64.945312 478.628906 61.625 482.960938 58.414062 C 487.292969 55.199219 491.699219 52.09375 496.183594 49.09375 C 500.667969 46.097656 505.222656 43.210938 509.851562 40.4375 C 514.476562 37.664062 519.167969 35.003906 523.925781 32.460938 C 528.679688 29.917969 533.496094 27.492188 538.375 25.1875 C 543.25 22.878906 548.179688 20.695312 553.160156 18.628906 C 558.144531 16.5625 563.175781 14.625 568.253906 12.804688 C 573.332031 10.988281 578.449219 9.296875 583.613281 7.730469 C 588.773438 6.164062 593.96875 4.722656 599.203125 3.414062 C 604.433594 2.101562 609.695312 0.921875 614.984375 -0.132812 C 620.273438 -1.183594 625.585938 -2.105469 630.921875 -2.898438 C 636.257812 -3.691406 641.609375 -4.351562 646.976562 -4.878906 C 652.34375 -5.40625 657.71875 -5.804688 663.109375 -6.070312 C 668.496094 -6.335938 673.886719 -6.464844 679.277344 -6.464844 C 684.671875 -6.464844 690.0625 -6.335938 695.449219 -6.070312 C 700.835938 -5.804688 706.214844 -5.40625 711.582031 -4.878906 C 716.949219 -4.351562 722.300781 -3.691406 727.636719 -2.898438 C 732.96875 -2.105469 738.28125 -1.183594 743.574219 -0.132812 C 748.863281 0.921875 754.125 2.101562 759.355469 3.414062 C 764.585938 4.722656 769.785156 6.164062 774.945312 7.730469 C 780.105469 9.296875 785.226562 10.988281 790.304688 12.804688 C 795.382812 14.625 800.414062 16.5625 805.394531 18.628906 C 810.378906 20.695312 815.308594 22.878906 820.183594 25.1875 C 825.058594 27.492188 829.875 29.917969 834.632812 32.460938 C 839.390625 35.003906 844.082031 37.664062 848.707031 40.4375 C 853.332031 43.210938 857.886719 46.097656 862.371094 49.09375 C 866.855469 52.09375 871.265625 55.199219 875.597656 58.414062 C 879.929688 61.625 884.179688 64.945312 888.351562 68.367188 C 892.519531 71.792969 896.601562 75.3125 900.597656 78.9375 C 904.59375 82.5625 908.5 86.28125 912.3125 90.09375 C 916.125 93.910156 919.84375 97.816406 923.46875 101.816406 C 927.089844 105.8125 930.609375 109.898438 934.03125 114.066406 C 937.453125 118.238281 940.769531 122.492188 943.984375 126.824219 C 947.195312 131.160156 950.300781 135.570312 953.296875 140.054688 C 956.292969 144.539062 959.179688 149.097656 961.953125 153.726562 C 964.726562 158.355469 967.382812 163.046875 969.925781 167.804688 C 972.46875 172.5625 974.890625 177.382812 977.199219 182.257812 C 979.503906 187.136719 981.6875 192.066406 983.753906 197.050781 C 985.816406 202.039062 987.757812 207.070312 989.574219 212.148438 C 991.390625 217.230469 993.082031 222.351562 994.648438 227.515625 C 996.214844 232.679688 997.652344 237.875 998.960938 243.109375 C 1000.273438 248.34375 1001.453125 253.605469 1002.507812 258.898438 C 1003.558594 264.191406 1004.480469 269.503906 1005.273438 274.84375 C 1006.0625 280.179688 1006.722656 285.53125 1007.253906 290.902344 C 1007.78125 296.273438 1008.175781 301.652344 1008.441406 307.039062 C 1008.707031 312.429688 1008.839844 317.820312 1008.839844 323.21875 Z M 1008.839844 323.21875 " fill-opacity="1" fill-rule="nonzero"/><g clip-path="url(#5935b4602e)"><path stroke-linecap="butt" transform="matrix(4.905636, 0, 0, 4.907472, 151.039566, -208.360004)" fill="none" stroke-linejoin="miter" d="M 161.140271 111.750166 C 161.140271 112.849415 161.113198 113.947868 161.059051 115.04632 C 161.004904 116.144773 160.92448 117.240837 160.816186 118.334514 C 160.708688 119.428987 160.574117 120.51948 160.412473 121.607584 C 160.251625 122.694893 160.063703 123.778222 159.849504 124.855979 C 159.634509 125.934532 159.394034 127.006718 159.126484 128.073331 C 158.859731 129.139944 158.566701 130.199394 158.247393 131.25168 C 157.928086 132.303169 157.583298 133.346699 157.213028 134.382269 C 156.842759 135.417044 156.447009 136.443062 156.026574 137.458733 C 155.605343 138.474403 155.160224 139.47893 154.689624 140.473109 C 154.21982 141.467289 153.726127 142.448732 153.20775 143.418236 C 152.689373 144.38774 152.147108 145.344508 151.582547 146.287744 C 151.01719 147.230185 150.42874 148.159094 149.817995 149.072879 C 149.20725 149.98746 148.574209 150.886121 147.919669 151.768863 C 147.264332 152.652401 146.588292 153.518428 145.890753 154.368535 C 145.193213 155.218641 144.475767 156.050441 143.736821 156.865524 C 142.998671 157.679812 142.240615 158.475792 141.463447 159.253465 C 140.68628 160.031137 139.890002 160.78891 139.07541 161.526784 C 138.260818 162.265453 137.428707 162.983427 136.578282 163.680706 C 135.728654 164.377985 134.862303 165.054568 133.979231 165.709659 C 133.096159 166.364751 132.197161 166.997555 131.283034 167.608072 C 130.368907 168.218589 129.440447 168.806818 128.497654 169.371964 C 127.554065 169.93711 126.597735 170.479172 125.628665 170.997355 C 124.658798 171.515538 123.676987 172.009842 122.683233 172.480266 C 121.689478 172.949895 120.684575 173.395644 119.668524 173.815921 C 118.65327 174.236995 117.627664 174.632597 116.592503 175.002727 C 115.557342 175.373654 114.513421 175.718314 113.461538 176.037502 C 112.408859 176.35669 111.349809 176.64961 110.283593 176.91706 C 109.21658 177.183713 108.14479 177.424895 107.065834 177.639014 C 105.987674 177.853928 104.904736 178.04178 103.81702 178.202568 C 102.730101 178.364151 101.6392 178.498672 100.545114 178.606129 C 99.450232 178.714383 98.354553 178.794777 97.256486 178.848903 C 96.158419 178.90303 95.059555 178.930093 93.959896 178.930093 C 92.860236 178.930093 91.761372 178.90303 90.663305 178.848903 C 89.565238 178.794777 88.469559 178.714383 87.375473 178.606129 C 86.281388 178.498672 85.190487 178.364151 84.102771 178.202568 C 83.015056 178.04178 81.932118 177.853928 80.853957 177.639014 C 79.775797 177.424895 78.703211 177.183713 77.636198 176.91706 C 76.569982 176.64961 75.510932 176.35669 74.459049 176.037502 C 73.40637 175.718314 72.363246 175.373654 71.328085 175.002727 C 70.292923 174.632597 69.267317 174.236995 68.251267 173.815921 C 67.235216 173.395644 66.23111 172.949895 65.236558 172.480266 C 64.242804 172.009842 63.260993 171.515538 62.291923 170.997355 C 61.322056 170.479172 60.365726 169.93711 59.422933 169.371964 C 58.479344 168.806818 57.550884 168.218589 56.636757 167.608072 C 55.72263 166.997555 54.823632 166.364751 53.94056 165.709659 C 53.057488 165.054568 52.191137 164.377985 51.341509 163.680706 C 50.49188 162.983427 49.658974 162.265453 48.844381 161.526784 C 48.029789 160.78891 47.234307 160.031137 46.456344 159.253465 C 45.679177 158.475792 44.92112 157.679812 44.18297 156.865524 C 43.444821 156.050441 42.726578 155.218641 42.029039 154.368535 C 41.331499 153.518428 40.655459 152.652401 40.000122 151.768863 C 39.345582 150.886121 38.712541 149.98746 38.101796 149.072879 C 37.491051 148.159094 36.903398 147.230185 36.33804 146.287744 C 35.772683 145.344508 35.230418 144.38774 34.712837 143.418236 C 34.19446 142.448732 33.699972 141.467289 33.230168 140.473109 C 32.759567 139.47893 32.314448 138.474403 31.894013 137.458733 C 31.472782 136.443062 31.077828 135.417044 30.706763 134.382269 C 30.336494 133.346699 29.991705 132.303169 29.672398 131.25168 C 29.353887 130.199394 29.06006 129.139944 28.793307 128.073331 C 28.525758 127.006718 28.285282 125.934532 28.071083 124.855979 C 27.856088 123.778222 27.668166 122.694893 27.507318 121.607584 C 27.345674 120.51948 27.211103 119.428987 27.103605 118.334514 C 26.996108 117.240837 26.914887 116.144773 26.86074 115.04632 C 26.806594 113.947868 26.780316 112.849415 26.780316 111.750166 C 26.780316 110.650918 26.806594 109.551669 26.86074 108.454013 C 26.914887 107.35556 26.996108 106.259496 27.103605 105.165023 C 27.211103 104.071346 27.345674 102.980057 27.507318 101.892749 C 27.668166 100.80544 27.856088 99.722111 28.071083 98.643558 C 28.285282 97.565801 28.525758 96.492819 28.793307 95.426206 C 29.06006 94.360389 29.353887 93.300939 29.672398 92.248653 C 29.991705 91.196368 30.336494 90.152838 30.706763 89.118063 C 31.077828 88.082493 31.472782 87.057271 31.894013 86.0416 C 32.314448 85.02593 32.759567 84.020607 33.230168 83.027223 C 33.699972 82.033044 34.19446 81.050805 34.712837 80.081301 C 35.230418 79.111797 35.772683 78.155825 36.33804 77.212589 C 36.903398 76.269352 37.491051 75.341239 38.101796 74.426658 C 38.712541 73.512873 39.345582 72.614211 40.000122 71.730673 C 40.655459 70.847932 41.331499 69.981109 42.029039 69.131798 C 42.726578 68.281692 43.444821 67.449096 44.18297 66.634809 C 44.92112 65.819725 45.679177 65.023745 46.456344 64.246868 C 47.234307 63.469196 48.029789 62.711423 48.844381 61.972753 C 49.658974 61.234879 50.49188 60.516905 51.341509 59.818831 C 52.191137 59.121552 53.057488 58.445765 53.94056 57.790673 C 54.823632 57.135582 55.72263 56.502778 56.636757 55.892261 C 57.550884 55.280948 58.479344 54.692719 59.422933 54.127573 C 60.365726 53.562427 61.322056 53.021161 62.291923 52.502181 C 63.260993 51.983998 64.242804 51.489695 65.236558 51.020066 C 66.23111 50.549642 67.235216 50.104689 68.251267 49.683616 C 69.267317 49.263338 70.292923 48.867736 71.328085 48.496809 C 72.363246 48.126679 73.40637 47.782019 74.459049 47.462831 C 75.510932 47.143643 76.569982 46.850723 77.636198 46.583273 C 78.703211 46.315824 79.775797 46.075438 80.853957 45.860523 C 81.932118 45.646405 83.015056 45.458553 84.102771 45.296969 C 85.190487 45.136181 86.281388 45.000865 87.375473 44.893407 C 88.469559 44.78595 89.565238 44.70476 90.663305 44.650634 C 91.761372 44.597303 92.860236 44.57024 93.959896 44.57024 C 95.059555 44.57024 96.158419 44.597303 97.256486 44.650634 C 98.354553 44.70476 99.451028 44.78595 100.545114 44.893407 C 101.6392 45.000865 102.730101 45.136181 103.81702 45.296969 C 104.904736 45.458553 105.987674 45.646405 107.065834 45.860523 C 108.14479 46.075438 109.21658 46.315824 110.283593 46.583273 C 111.349809 46.850723 112.408859 47.143643 113.461538 47.462831 C 114.513421 47.782019 115.557342 48.126679 116.592503 48.496809 C 117.627664 48.867736 118.65327 49.263338 119.668524 49.683616 C 120.684575 50.104689 121.689478 50.549642 122.683233 51.020066 C 123.676987 51.489695 124.658798 51.983998 125.628665 52.502181 C 126.597735 53.021161 127.554065 53.562427 128.497654 54.127573 C 129.440447 54.692719 130.368907 55.280948 131.283034 55.892261 C 132.197161 56.502778 133.096159 57.135582 133.979231 57.790673 C 134.862303 58.445765 135.728654 59.121552 136.578282 59.818831 C 137.428707 60.516905 138.260818 61.234879 139.07541 61.972753 C 139.890002 62.711423 140.68628 63.469196 141.463447 64.246868 C 142.240615 65.023745 142.998671 65.819725 143.736821 66.634809 C 144.475767 67.449096 145.193213 68.281692 145.890753 69.131798 C 146.588292 69.981109 147.264332 70.847932 147.919669 71.730673 C 148.574209 72.614211 149.20725 73.512873 149.817995 74.426658 C 150.42874 75.341239 151.01719 76.269352 151.582547 77.212589 C 152.147108 78.155825 152.689373 79.111797 153.20775 80.081301 C 153.726127 81.050805 154.21982 82.033044 154.689624 83.027223 C 155.160224 84.020607 155.605343 85.02593 156.026574 86.0416 C 156.447009 87.057271 156.842759 88.082493 157.213028 89.118063 C 157.583298 90.152838 157.928086 91.196368 158.247393 92.248653 C 158.566701 93.300939 158.859731 94.360389 159.126484 95.426206 C 159.394034 96.492819 159.634509 97.565801 159.849504 98.643558 C 160.063703 99.722111 160.251625 100.80544 160.412473 101.892749 C 160.574117 102.980057 160.708688 104.071346 160.816186 105.165023 C 160.92448 106.259496 161.004904 107.35556 161.059051 108.454013 C 161.113198 109.551669 161.140271 110.650918 161.140271 111.750166 Z M 161.140271 111.750166 " stroke="#cd8e6f" stroke-width="2" stroke-opacity="1" stroke-miterlimit="10"/><path stroke-linecap="butt" transform="matrix(4.905636, 0, 0, 4.907472, 151.039566, -208.360004)" fill="none" stroke-linejoin="miter" d="M 172.730096 108.320288 C 172.730096 109.419537 172.703023 110.517989 172.648876 111.616442 C 172.595525 112.714098 172.514305 113.810959 172.406807 114.904636 C 172.298513 115.999108 172.163943 117.089601 172.003094 118.177706 C 171.84145 119.265015 171.653528 120.347548 171.43933 121.426101 C 171.224335 122.504654 170.983859 123.576839 170.717106 124.643453 C 170.449556 125.710066 170.156526 126.769515 169.837218 127.821005 C 169.517911 128.873291 169.173123 129.916821 168.802853 130.952391 C 168.432584 131.987165 168.036834 133.013184 167.616399 134.028854 C 167.195168 135.044525 166.750049 136.049052 166.280245 137.043231 C 165.809645 138.03741 165.315952 139.018854 164.797575 139.988357 C 164.279199 140.957861 163.73773 141.914629 163.172372 142.85707 C 162.607015 143.800306 162.018566 144.729215 161.40782 145.643 C 160.797075 146.557582 160.164034 147.456243 159.509494 148.338985 C 158.854157 149.222523 158.178117 150.088549 157.480578 150.938656 C 156.783038 151.788763 156.065592 152.620562 155.327442 153.435646 C 154.588496 154.249933 153.831236 155.045914 153.053272 155.823586 C 152.276105 156.600463 151.479827 157.359032 150.665235 158.096905 C 149.850643 158.835575 149.018532 159.553549 148.168904 160.250828 C 147.318479 160.948106 146.452129 161.624689 145.569056 162.279781 C 144.685984 162.934077 143.786986 163.567677 142.872859 164.178194 C 141.958732 164.78871 141.030272 165.37694 140.087479 165.942086 C 139.144686 166.507231 138.188356 167.049294 137.21849 167.567477 C 136.248623 168.08566 135.266813 168.579964 134.273058 169.049592 C 133.279303 169.520016 132.2744 169.965765 131.25835 170.386043 C 130.243095 170.807116 129.217489 171.202718 128.182328 171.572849 C 127.147167 171.94298 126.103246 172.288435 125.051363 172.607623 C 123.99948 172.926015 122.939634 173.219732 121.873418 173.486385 C 120.807202 173.753835 119.734616 173.995017 118.656455 174.209135 C 117.577499 174.423254 116.494561 174.611901 115.407641 174.772689 C 114.319926 174.934273 113.229025 175.068794 112.134939 175.176251 C 111.040853 175.284504 109.944379 175.364898 108.846311 175.419025 C 107.748244 175.473152 106.64938 175.500215 105.549721 175.500215 C 104.450857 175.500215 103.351994 175.473152 102.253926 175.419025 C 101.155859 175.364898 100.059384 175.284504 98.965299 175.176251 C 97.871213 175.068794 96.780312 174.934273 95.692596 174.772689 C 94.604881 174.611901 93.521943 174.423254 92.443782 174.209135 C 91.365622 173.995017 90.293036 173.753835 89.22682 173.486385 C 88.159807 173.219732 87.100758 172.926015 86.048874 172.607623 C 84.996195 172.288435 83.953071 171.94298 82.91791 171.572849 C 81.882748 171.202718 80.857142 170.807116 79.841092 170.386043 C 78.825837 169.965765 77.820935 169.520016 76.82718 169.049592 C 75.832629 168.579964 74.850818 168.08566 73.881748 167.567477 C 72.911881 167.049294 71.955552 166.507231 71.012759 165.942086 C 70.069169 165.37694 69.140709 164.78871 68.226582 164.178194 C 67.312455 163.567677 66.414254 162.934077 65.531181 162.279781 C 64.648109 161.624689 63.780962 160.948106 62.931334 160.250828 C 62.081705 159.553549 61.249595 158.835575 60.435003 158.096905 C 59.62041 157.359032 58.824132 156.600463 58.046169 155.823586 C 57.269002 155.045914 56.510945 154.249933 55.772795 153.435646 C 55.034646 152.620562 54.316403 151.788763 53.618864 150.938656 C 52.921324 150.088549 52.245284 149.222523 51.590744 148.338985 C 50.935407 147.456243 50.302366 146.557582 49.691621 145.643 C 49.080876 144.729215 48.493223 143.800306 47.927865 142.85707 C 47.362508 141.914629 46.821039 140.957861 46.302662 139.988357 C 45.784285 139.018854 45.289797 138.03741 44.819993 137.043231 C 44.350189 136.049052 43.904273 135.044525 43.483838 134.028854 C 43.063404 133.013184 42.667653 131.987165 42.297384 130.952391 C 41.926319 129.916821 41.58153 128.873291 41.263019 127.821005 C 40.943712 126.769515 40.650681 125.710066 40.383132 124.643453 C 40.116379 123.576839 39.875107 122.504654 39.660908 121.426101 C 39.446709 120.347548 39.258788 119.265015 39.097143 118.177706 C 38.935499 117.089601 38.800928 115.999108 38.69343 114.904636 C 38.585933 113.810959 38.504712 112.714098 38.450566 111.616442 C 38.397215 110.517989 38.370142 109.419537 38.370142 108.320288 C 38.370142 107.220244 38.397215 106.121791 38.450566 105.023338 C 38.504712 103.925682 38.585933 102.829617 38.69343 101.735144 C 38.800928 100.640672 38.935499 99.550179 39.097143 98.46287 C 39.258788 97.374765 39.446709 96.292232 39.660908 95.213679 C 39.875107 94.135126 40.116379 93.062941 40.383132 91.996328 C 40.650681 90.929714 40.943712 89.871061 41.263019 88.818775 C 41.58153 87.766489 41.926319 86.722959 42.297384 85.687389 C 42.667653 84.652615 43.063404 83.627392 43.483838 82.610926 C 43.904273 81.595255 44.350189 80.590728 44.819993 79.596549 C 45.289797 78.603166 45.784285 77.620926 46.302662 76.651423 C 46.821039 75.681919 47.362508 74.725947 47.927865 73.78271 C 48.493223 72.839474 49.080876 71.910565 49.691621 70.99678 C 50.302366 70.082995 50.935407 69.184333 51.590744 68.300795 C 52.245284 67.418053 52.921324 66.551231 53.618864 65.701124 C 54.316403 64.851813 55.034646 64.019218 55.772795 63.20493 C 56.510945 62.389847 57.269002 61.593867 58.046169 60.816194 C 58.824132 60.039317 59.62041 59.281544 60.435003 58.542875 C 61.249595 57.804205 62.081705 57.087027 62.931334 56.388952 C 63.780962 55.691674 64.648109 55.015091 65.531181 54.360795 C 66.414254 53.705703 67.312455 53.072899 68.226582 52.461587 C 69.140709 51.85107 70.069169 51.26284 71.012759 50.697695 C 71.955552 50.132549 72.911881 49.590486 73.881748 49.072303 C 74.850818 48.55412 75.832629 48.059816 76.82718 47.590188 C 77.820935 47.119764 78.825837 46.674811 79.841092 46.253737 C 80.857142 45.832664 81.882748 45.437858 82.91791 45.066931 C 83.953071 44.6968 84.996195 44.352141 86.048874 44.032953 C 87.100758 43.713765 88.159807 43.420048 89.22682 43.153395 C 90.293036 42.885946 91.365622 42.64556 92.443782 42.430645 C 93.521943 42.216526 94.604881 42.028675 95.692596 41.867091 C 96.780312 41.705507 97.871213 41.570986 98.965299 41.463529 C 100.059384 41.356072 101.155859 41.274882 102.253926 41.220755 C 103.351994 41.166628 104.450857 41.140361 105.549721 41.140361 C 106.64938 41.140361 107.748244 41.166628 108.846311 41.220755 C 109.944379 41.274882 111.040853 41.356072 112.134939 41.463529 C 113.229025 41.570986 114.319926 41.705507 115.407641 41.867091 C 116.494561 42.028675 117.577499 42.216526 118.656455 42.430645 C 119.734616 42.64556 120.807202 42.885946 121.873418 43.153395 C 122.939634 43.420048 123.99948 43.713765 125.051363 44.032953 C 126.103246 44.352141 127.147167 44.6968 128.182328 45.066931 C 129.217489 45.437858 130.243095 45.832664 131.25835 46.253737 C 132.2744 46.674811 133.279303 47.119764 134.273058 47.590188 C 135.266813 48.059816 136.248623 48.55412 137.21849 49.072303 C 138.188356 49.590486 139.144686 50.132549 140.087479 50.697695 C 141.030272 51.26284 141.958732 51.85107 142.872859 52.461587 C 143.786986 53.072899 144.685984 53.705703 145.569056 54.360795 C 146.452129 55.015091 147.318479 55.691674 148.168904 56.388952 C 149.018532 57.087027 149.850643 57.804205 150.665235 58.542875 C 151.479827 59.281544 152.276105 60.039317 153.053272 60.816194 C 153.831236 61.593867 154.588496 62.389847 155.327442 63.20493 C 156.065592 64.019218 156.783038 64.851813 157.480578 65.701124 C 158.178117 66.551231 158.854157 67.418053 159.509494 68.300795 C 160.164034 69.184333 160.797075 70.082995 161.40782 70.99678 C 162.018566 71.910565 162.607015 72.839474 163.172372 73.78271 C 163.73773 74.725947 164.279199 75.681919 164.797575 76.651423 C 165.315952 77.620926 165.809645 78.603166 166.280245 79.596549 C 166.750049 80.590728 167.195168 81.595255 167.616399 82.610926 C 168.036834 83.627392 168.432584 84.652615 168.802853 85.687389 C 169.173123 86.722959 169.517911 87.766489 169.837218 88.818775 C 170.156526 89.871061 170.449556 90.929714 170.717106 91.996328 C 170.983859 93.062941 171.224335 94.135126 171.43933 95.213679 C 171.653528 96.292232 171.84145 97.374765 172.003094 98.46287 C 172.163943 99.550179 172.298513 100.640672 172.406807 101.735144 C 172.514305 102.829617 172.595525 103.925682 172.648876 105.023338 C 172.703023 106.121791 172.730096 107.220244 172.730096 108.320288 Z M 172.730096 108.320288 " stroke="#cd8e6f" stroke-width="2" stroke-opacity="1" stroke-miterlimit="10"/><path stroke-linecap="butt" transform="matrix(4.905636, 0, 0, 4.907472, 151.039566, -208.360004)" fill="none" stroke-linejoin="miter" d="M 184.310366 104.889614 C 184.310366 105.989658 184.283292 107.088111 184.229146 108.186563 C 184.174999 109.28422 184.094575 110.380285 183.986281 111.474757 C 183.878783 112.56923 183.744212 113.659723 183.582568 114.747032 C 183.42172 115.835136 183.233798 116.917669 183.018803 117.996223 C 182.804604 119.074776 182.564128 120.146961 182.296579 121.213574 C 182.029826 122.280188 181.736796 123.338841 181.417488 124.391127 C 181.098181 125.443413 180.753392 126.486943 180.383123 127.522513 C 180.012854 128.557287 179.617104 129.582509 179.195873 130.598976 C 178.775438 131.614647 178.330319 132.619173 177.859718 133.613353 C 177.389914 134.606736 176.895426 135.588975 176.377845 136.558479 C 175.859468 137.527983 175.317203 138.484751 174.751846 139.427192 C 174.187285 140.370428 173.598835 141.299337 172.98809 142.213122 C 172.377345 143.127703 171.744304 144.026365 171.089764 144.909107 C 170.434427 145.791849 169.758387 146.658671 169.060847 147.508778 C 168.363308 148.358089 167.645065 149.190684 166.906916 150.004971 C 166.168766 150.820055 165.410709 151.616035 164.633542 152.393708 C 163.856375 153.170584 163.060097 153.928357 162.245505 154.667027 C 161.430912 155.405697 160.598802 156.123671 159.748377 156.820949 C 158.898749 157.518228 158.032398 158.194811 157.149326 158.849107 C 156.266254 159.504198 155.367256 160.137003 154.453129 160.748315 C 153.539002 161.358832 152.610542 161.947061 151.667749 162.512207 C 150.72416 163.077353 149.76783 163.619416 148.79876 164.137599 C 147.828893 164.655782 146.847082 165.150085 145.853328 165.619714 C 144.859573 166.090138 143.85467 166.535887 142.838619 166.956164 C 141.822569 167.377238 140.797759 167.77284 139.762598 168.142971 C 138.727436 168.513101 137.683516 168.857761 136.631633 169.176949 C 135.578954 169.496137 134.519904 169.789854 133.453688 170.056507 C 132.386675 170.323956 131.314089 170.564342 130.235929 170.779257 C 129.157768 170.993375 128.07483 171.181227 126.987115 171.342811 C 125.900195 171.504395 124.809295 171.638915 123.714413 171.746373 C 122.620327 171.854626 121.524648 171.93502 120.426581 171.989147 C 119.328514 172.043273 118.22965 172.070337 117.12999 172.070337 C 116.030331 172.070337 114.931467 172.043273 113.8334 171.989147 C 112.735333 171.93502 111.639654 171.854626 110.545568 171.746373 C 109.450686 171.638915 108.360582 171.504395 107.272866 171.342811 C 106.18515 171.181227 105.102212 170.993375 104.024052 170.779257 C 102.945892 170.564342 101.873306 170.323956 100.806293 170.056507 C 99.740077 169.789854 98.681027 169.496137 97.628348 169.176949 C 96.576465 168.857761 95.532544 168.513101 94.497383 168.142971 C 93.462222 167.77284 92.437412 167.377238 91.421362 166.956164 C 90.405311 166.535887 89.400408 166.090138 88.406653 165.619714 C 87.412899 165.150085 86.431088 164.655782 85.461221 164.137599 C 84.492151 163.619416 83.535821 163.077353 82.592232 162.512207 C 81.649439 161.947061 80.720979 161.358832 79.806852 160.748315 C 78.892725 160.137003 77.993727 159.504198 77.110655 158.849107 C 76.227583 158.194811 75.361232 157.518228 74.511604 156.820949 C 73.661179 156.123671 72.829068 155.405697 72.014476 154.667027 C 71.199884 153.929153 70.403606 153.170584 69.626439 152.393708 C 68.849271 151.616035 68.091215 150.820055 67.353065 150.004971 C 66.614916 149.190684 65.896673 148.358089 65.199133 147.508778 C 64.501594 146.658671 63.825554 145.791849 63.170217 144.909107 C 62.515677 144.026365 61.882636 143.127703 61.271891 142.213122 C 60.661146 141.299337 60.072696 140.370428 59.508135 139.427192 C 58.942778 138.484751 58.400513 137.527983 57.882136 136.558479 C 57.364555 135.588975 56.870066 134.606736 56.400262 133.613353 C 55.929662 132.619173 55.484543 131.614647 55.064108 130.598976 C 54.642877 129.582509 54.247127 128.557287 53.876858 127.522513 C 53.506588 126.486943 53.1618 125.443413 52.842493 124.391127 C 52.523185 123.338841 52.230155 122.280188 51.963402 121.213574 C 51.695852 120.146961 51.455377 119.074776 51.241178 117.996223 C 51.026183 116.917669 50.838261 115.835136 50.677413 114.747032 C 50.515769 113.659723 50.381198 112.56923 50.2737 111.474757 C 50.165406 110.380285 50.084982 109.28422 50.030835 108.186563 C 49.976688 107.088111 49.949615 105.989658 49.949615 104.889614 C 49.949615 103.790365 49.976688 102.691913 50.030835 101.59346 C 50.084982 100.495803 50.165406 99.399739 50.2737 98.305266 C 50.381198 97.210793 50.515769 96.120301 50.677413 95.032992 C 50.838261 93.944887 51.026183 92.862354 51.241178 91.783801 C 51.455377 90.705248 51.695852 89.633063 51.963402 88.566449 C 52.230155 87.499836 52.523185 86.440386 52.842493 85.388897 C 53.1618 84.336611 53.506588 83.293081 53.876858 82.257511 C 54.247127 81.222737 54.642877 80.196718 55.064108 79.181047 C 55.484543 78.165377 55.929662 77.16085 56.400262 76.166671 C 56.870066 75.173288 57.364555 74.191048 57.882136 73.221544 C 58.400513 72.25204 58.942778 71.295272 59.508135 70.352832 C 60.072696 69.409595 60.661146 68.480687 61.271891 67.566901 C 61.882636 66.65232 62.515677 65.753659 63.170217 64.870917 C 63.825554 63.988175 64.501594 63.121352 65.199133 62.271246 C 65.896673 61.421935 66.614916 60.58934 67.353065 59.775052 C 68.091215 58.959968 68.849271 58.163988 69.626439 57.386316 C 70.403606 56.609439 71.199884 55.85087 72.014476 55.112996 C 72.829068 54.374327 73.661179 53.656353 74.511604 52.959074 C 75.361232 52.261795 76.227583 51.585212 77.110655 50.930121 C 77.993727 50.275825 78.892725 49.643021 79.806852 49.031708 C 80.720979 48.421191 81.649439 47.832962 82.592232 47.267816 C 83.535821 46.70267 84.492151 46.160608 85.461221 45.642425 C 86.431088 45.124242 87.412899 44.629938 88.406653 44.16031 C 89.400408 43.689885 90.405311 43.244137 91.421362 42.823859 C 92.437412 42.402786 93.462222 42.007183 94.497383 41.637053 C 95.532544 41.266922 96.576465 40.922263 97.628348 40.603075 C 98.681027 40.283887 99.740077 39.99017 100.806293 39.723517 C 101.873306 39.456067 102.945892 39.215681 104.024052 39.000767 C 105.102212 38.786648 106.18515 38.598797 107.272866 38.437213 C 108.360582 38.275629 109.450686 38.141108 110.545568 38.033651 C 111.639654 37.925397 112.735333 37.845003 113.8334 37.790877 C 114.931467 37.73675 116.030331 37.709687 117.12999 37.709687 C 118.22965 37.709687 119.328514 37.73675 120.426581 37.790877 C 121.524648 37.845003 122.620327 37.925397 123.714413 38.033651 C 124.809295 38.141108 125.899399 38.275629 126.987115 38.437213 C 128.07483 38.598797 129.157768 38.786648 130.235929 39.000767 C 131.314089 39.215681 132.386675 39.456067 133.453688 39.723517 C 134.519904 39.99017 135.578954 40.283887 136.631633 40.603075 C 137.683516 40.922263 138.727436 41.266922 139.762598 41.637053 C 140.797759 42.007183 141.822569 42.402786 142.838619 42.823859 C 143.85467 43.244137 144.859573 43.689885 145.853328 44.16031 C 146.847082 44.629938 147.828893 45.124242 148.79876 45.642425 C 149.76783 46.160608 150.72416 46.70267 151.667749 47.267816 C 152.610542 47.832962 153.539002 48.421191 154.453129 49.031708 C 155.367256 49.643021 156.266254 50.275825 157.149326 50.930121 C 158.032398 51.585212 158.898749 52.261795 159.748377 52.959074 C 160.598802 53.656353 161.430912 54.374327 162.245505 55.112996 C 163.060097 55.85087 163.856375 56.609439 164.633542 57.386316 C 165.410709 58.163988 166.168766 58.959968 166.906916 59.775052 C 167.645065 60.58934 168.363308 61.421935 169.060847 62.271246 C 169.758387 63.121352 170.434427 63.988175 171.089764 64.870917 C 171.744304 65.753659 172.377345 66.65232 172.98809 67.566901 C 173.598835 68.480687 174.187285 69.409595 174.751846 70.352832 C 175.317203 71.295272 175.859468 72.25204 176.377845 73.221544 C 176.895426 74.191048 177.389914 75.173288 177.859718 76.166671 C 178.330319 77.16085 178.775438 78.165377 179.195873 79.181047 C 179.617104 80.196718 180.012854 81.222737 180.383123 82.257511 C 180.753392 83.293081 181.098181 84.336611 181.417488 85.388897 C 181.735999 86.440386 182.029826 87.499836 182.296579 88.566449 C 182.564128 89.633063 182.804604 90.705248 183.018803 91.783801 C 183.233798 92.862354 183.42172 93.944887 183.582568 95.032992 C 183.744212 96.120301 183.878783 97.210793 183.986281 98.305266 C 184.094575 99.399739 184.174999 100.495803 184.229146 101.59346 C 184.283292 102.691913 184.310366 103.790365 184.310366 104.889614 Z M 184.310366 104.889614 " stroke="#cd8e6f" stroke-width="2" stroke-opacity="1" stroke-miterlimit="10"/></g><path fill="#cd8e6f" d="M -225.558594 341.144531 C -197.097656 289.230469 -140.167969 258.5 -82.542969 244.875 C -24.917969 231.25 34.996094 231.996094 93.96875 227.023438 C 152.9375 222.050781 213.695312 210.316406 261.667969 175.609375 C 309.09375 141.296875 345.121094 84.609375 402.996094 75.558594 C 446.6875 68.699219 491.722656 94.15625 514.761719 131.847656 C 537.800781 169.542969 540.9375 217.179688 530.535156 260.140625 C 520.085938 303.105469 497.195312 342.089844 471.070312 377.742188 C 450.167969 406.183594 425.6875 434.03125 392.84375 446.960938 C 337.40625 468.839844 269.929688 444.074219 217.578125 472.519531 C 180.207031 492.808594 160.75 534.925781 129.496094 563.765625 C 81.027344 608.519531 6.882812 616.972656 -56.515625 598.722656 C -164.898438 567.59375 -293.585938 465.308594 -225.558594 341.144531 Z M -225.558594 341.144531 " fill-opacity="1" fill-rule="nonzero"/><g clip-path="url(#9d209a7652)"><path stroke-linecap="butt" transform="matrix(4.976288, 0, 0, 4.97255, -360.666629, -220.207234)" fill="none" stroke-linejoin="miter" d="M 16.550095 105.820052 C 22.270191 95.379923 33.710384 89.199902 45.290301 86.459859 C 56.870218 83.719816 68.91013 83.869859 80.760078 82.869837 C 92.610026 81.869816 104.820276 79.509985 114.459741 72.530261 C 123.990095 65.629878 131.229898 54.229792 142.860053 52.409643 C 151.639973 51.030195 160.689924 56.149707 165.319693 63.730387 C 169.950247 71.310282 170.579795 80.890219 168.490197 89.529838 C 166.399815 98.170242 161.78967 106.010158 156.539773 113.179989 C 152.340169 118.899671 147.41996 124.499948 140.819909 127.10016 C 129.680362 131.500097 116.119958 126.519629 105.599754 132.240097 C 98.08992 136.32031 94.179971 144.790247 87.900189 150.590057 C 78.160248 159.590249 63.259896 161.290206 50.519789 157.620057 C 28.729732 151.359908 2.870376 130.789948 16.550095 105.820052 Z M 16.550095 105.820052 " stroke="#fbe6bd" stroke-width="2" stroke-opacity="1" stroke-miterlimit="10"/></g><path fill="#ffc36a" d="M 43.953125 825.367188 C 15.617188 800.179688 0.0390625 761.257812 3.171875 723.46875 C 19.472656 730.886719 31.46875 745.746094 38.996094 762.019531 C 46.523438 778.296875 50.082031 796.042969 53.601562 813.621094 C 54.21875 816.699219 58.6875 829.746094 56.359375 831.835938 C 53.285156 834.574219 45.871094 827.285156 43.953125 825.367188 Z M 43.953125 825.367188 " fill-opacity="1" fill-rule="nonzero"/><path fill="#ffc36a" d="M 101.351562 781.78125 C 112.828125 783.8125 123.449219 789.015625 134.460938 792.800781 C 163.335938 802.734375 195.492188 802.882812 224.445312 793.191406 C 212.820312 783.253906 201.117188 773.261719 187.855469 765.65625 C 168.8125 754.714844 146.402344 748.988281 124.640625 751.878906 C 110.015625 753.835938 95.839844 759.894531 84.566406 769.441406 C 82.367188 771.304688 72.53125 779.5625 78.398438 782.84375 C 80.226562 783.871094 86.652344 781.316406 88.832031 781.128906 C 93.023438 780.792969 97.253906 781.035156 101.351562 781.78125 Z M 101.351562 781.78125 " fill-opacity="1" fill-rule="nonzero"/><path fill="#ffc36a" d="M 136.898438 662.136719 C 141.78125 641.070312 157.503906 622.839844 177.605469 614.914062 C 172.761719 618.664062 172 625.636719 172.371094 631.75 C 173.042969 642.953125 176.117188 653.933594 176.601562 665.15625 C 177.253906 680.3125 173.042969 695.636719 164.734375 708.3125 C 160.988281 714.035156 156.386719 719.21875 151.1875 723.675781 C 148.433594 726.042969 145.507812 728.183594 142.433594 730.125 C 141.035156 731 135.351562 735.269531 133.730469 734.597656 C 131.441406 733.648438 134.960938 716.71875 135.074219 713.773438 C 135.351562 705.703125 134.90625 697.613281 134.757812 689.539062 C 134.609375 680.367188 134.8125 671.101562 136.898438 662.136719 Z M 136.898438 662.136719 " fill-opacity="1" fill-rule="nonzero"/><path fill="#ffc36a" d="M 220.644531 669.703125 C 234.820312 665.828125 250.546875 669.128906 264.070312 663.386719 C 271.875 660.066406 278.136719 654.046875 284.601562 648.566406 C 291.066406 643.085938 298.277344 637.84375 306.679688 636.652344 C 283.988281 630.890625 259.246094 633.707031 238.417969 644.371094 C 228.1875 649.609375 218.949219 656.730469 211.179688 665.210938 C 207.265625 669.480469 203.726562 674.085938 200.617188 678.988281 C 197.953125 683.183594 195.882812 690.621094 192.492188 693.828125 C 195.492188 682.234375 209.78125 672.6875 220.644531 669.703125 Z M 220.644531 669.703125 " fill-opacity="1" fill-rule="nonzero"/><g clip-path="url(#a7ad8a08c6)"><path fill="#ffc36a" d="M 208.273438 574.332031 C 213.65625 560.761719 223.644531 549.613281 233.421875 538.78125 C 238.082031 555.1875 242.179688 572.207031 240.28125 589.152344 C 238.789062 602.5 232.976562 616.035156 222.597656 624.851562 C 221.203125 626.046875 216.210938 630.667969 214.253906 630.277344 C 212.089844 629.847656 209.726562 622.855469 208.90625 620.9375 C 206.019531 614.058594 204.417969 606.640625 204.117188 599.183594 C 203.800781 590.738281 205.160156 582.199219 208.273438 574.332031 Z M 208.273438 574.332031 " fill-opacity="1" fill-rule="nonzero"/></g><g clip-path="url(#611bd42197)"><path stroke-linecap="butt" transform="matrix(1.863039, 0, 0, 1.864212, -16.689363, 541.354025)" fill="none" stroke-linejoin="miter" d="M 47.749349 171.979896 C 42.329357 161.819351 40.899402 149.590656 43.838988 138.459945 C 46.770186 127.320853 54.039476 117.3908 63.759818 111.2094 C 71.509253 106.289425 80.529295 103.789625 88.710652 99.619799 C 98.930011 94.419041 107.790702 86.580188 114.200341 77.07969 C 124.799204 61.360076 128.319578 42.069917 131.600927 23.389516 " stroke="#cd8e6f" stroke-width="2" stroke-opacity="1" stroke-miterlimit="10"/></g><path stroke-linecap="butt" transform="matrix(1.863039, 0, 0, 1.864212, -16.689363, 541.354025)" fill="none" stroke-linejoin="miter" d="M 34.800076 151.160103 C 19.59055 137.649029 11.230972 116.770565 12.910436 96.499763 C 21.660002 100.481004 28.098995 108.449772 32.139352 117.179166 C 36.17971 125.910655 38.089812 135.430011 39.981043 144.859266 C 40.310227 146.510433 42.710958 153.509035 41.459223 154.630068 C 39.809113 156.101032 35.82956 152.191035 34.800076 151.160103 Z M 34.800076 151.160103 " stroke="#cd8e6f" stroke-width="2" stroke-opacity="1" stroke-miterlimit="10"/><path stroke-linecap="butt" transform="matrix(1.863039, 0, 0, 1.864212, -16.689363, 541.354025)" fill="none" stroke-linejoin="miter" d="M 63.359346 125.650827 C 69.519477 126.74043 75.220428 129.529393 81.13105 131.559826 C 96.629921 136.890498 113.890028 136.970123 129.430834 131.769365 C 123.191028 126.440789 116.909289 121.080782 109.790963 116.998962 C 99.569507 111.129775 87.540689 108.060029 75.859924 109.610618 C 68.009846 110.660408 60.40089 113.910358 54.349789 119.029395 C 53.169342 120.030991 47.889829 124.460645 51.039086 126.220773 C 52.020345 126.769765 55.469431 125.39938 56.639395 125.300897 C 58.889163 125.120693 61.159899 125.258989 63.359346 125.650827 Z M 63.359346 125.650827 " stroke="#cd8e6f" stroke-width="2" stroke-opacity="1" stroke-miterlimit="10"/><path stroke-linecap="butt" transform="matrix(1.863039, 0, 0, 1.864212, -16.689363, 541.354025)" fill="none" stroke-linejoin="miter" d="M 79.399169 64.790229 C 82.020055 53.489791 90.459307 43.710607 101.248971 39.459061 C 98.649052 41.470635 98.240194 45.210906 98.439381 48.490191 C 98.800015 54.499769 100.450125 60.38991 100.710117 66.409965 C 101.060267 74.540078 98.800015 82.760292 94.340315 89.559832 C 92.329572 92.629578 89.859649 95.410161 87.071026 97.801 C 85.59075 99.070807 84.020315 100.21908 82.370205 101.260489 C 81.619583 101.729856 78.570969 104.020117 77.700834 103.65971 C 76.470066 103.150531 78.359201 94.069111 78.420006 92.489187 C 78.570969 88.160112 78.329847 83.820559 78.250172 79.489388 C 78.180981 74.569413 78.279526 69.599148 79.399169 64.790229 Z M 79.399169 64.790229 " stroke="#cd8e6f" stroke-width="2" stroke-opacity="1" stroke-miterlimit="10"/><g clip-path="url(#bc679f0f44)"><path stroke-linecap="butt" transform="matrix(1.863039, 0, 0, 1.864212, -16.689363, 541.354025)" fill="none" stroke-linejoin="miter" d="M 127.390736 67.019724 C 134.999692 64.939001 143.441042 66.709606 150.699848 63.629383 C 154.889072 61.850397 158.250096 58.619306 161.720149 55.679474 C 165.190202 52.739642 169.060727 49.929724 173.570747 49.29063 C 161.390966 46.19993 148.110412 47.710706 136.930761 53.429025 C 131.439481 56.241038 126.480764 60.060934 122.310411 64.610025 C 120.209508 66.900286 118.30989 69.370751 116.64091 72.000465 C 115.210955 74.250914 114.099699 78.240536 112.279756 79.960851 C 113.890028 73.739639 121.559789 68.620601 127.390736 67.019724 Z M 127.390736 67.019724 " stroke="#cd8e6f" stroke-width="2" stroke-opacity="1" stroke-miterlimit="10"/></g><g clip-path="url(#62086c6dbc)"><path stroke-linecap="butt" transform="matrix(1.863039, 0, 0, 1.864212, -16.689363, 541.354025)" fill="none" stroke-linejoin="miter" d="M 122.390086 21.009153 C 125.27935 13.729769 130.640635 7.749526 135.890794 1.93901 C 138.39007 10.739648 140.589518 19.869261 139.570517 28.959062 C 138.769575 36.119009 135.649672 43.379535 130.080813 48.110926 C 129.330192 48.750019 126.650598 51.230961 125.600147 51.019327 C 124.440667 50.790929 123.170061 47.040181 122.729752 46.009249 C 121.180285 42.319268 120.320634 38.340123 120.159187 34.340023 C 119.989354 29.820268 120.710622 25.239745 122.390086 21.009153 Z M 122.390086 21.009153 " stroke="#cd8e6f" stroke-width="2" stroke-opacity="1" stroke-miterlimit="10"/></g></svg>